<?xml version="1.0" encoding="UTF-8" standalone="no"?>
<!-- Created with Inkscape (http://www.inkscape.org/) -->

<svg
   xmlns:dc="http://purl.org/dc/elements/1.1/"
   xmlns:cc="http://creativecommons.org/ns#"
   xmlns:rdf="http://www.w3.org/1999/02/22-rdf-syntax-ns#"
   xmlns:svg="http://www.w3.org/2000/svg"
   xmlns="http://www.w3.org/2000/svg"
   xmlns:sodipodi="http://sodipodi.sourceforge.net/DTD/sodipodi-0.dtd"
   xmlns:inkscape="http://www.inkscape.org/namespaces/inkscape"
   sodipodi:docname="SPH_images.pdf"
   inkscape:version="0.48.1 r9760"
   version="1.1"
   id="svg2985"
   height="650"
   width="954.33203">
  <sodipodi:namedview
     id="base"
     pagecolor="#ffffff"
     bordercolor="#666666"
     borderopacity="1.0"
     inkscape:pageopacity="0.0"
     inkscape:pageshadow="2"
     inkscape:zoom="1"
     inkscape:cx="270.16384"
     inkscape:cy="356.25589"
     inkscape:current-layer="layer1"
     inkscape:document-units="px"
     showgrid="false"
     inkscape:window-width="1680"
     inkscape:window-height="973"
     inkscape:window-x="0"
     inkscape:window-y="24"
     inkscape:window-maximized="1"
     showguides="true"
     inkscape:guide-bbox="true"
     fit-margin-top="10"
     borderlayer="true"
     fit-margin-left="10"
     fit-margin-right="10"
     fit-margin-bottom="10">
    <sodipodi:guide
       id="guide3822"
       position="115,490.5"
       orientation="1,0" />
    <sodipodi:guide
       id="guide3830"
       position="70.5,376"
       orientation="0,1" />
  </sodipodi:namedview>
  <defs
     id="defs2987">
    <marker
       inkscape:stockid="Arrow1Mend"
       orient="auto"
       refY="0"
       refX="0"
       id="Arrow1Mend"
       style="overflow:visible">
      <path
         id="path3867"
         d="M 0,0 5,-5 -12.5,0 5,5 0,0 z"
         style="fill-rule:evenodd;stroke:#000000;stroke-width:1pt;marker-start:none"
         transform="matrix(-0.4,0,0,-0.4,-4,0)"
         inkscape:connector-curvature="0" />
    </marker>
    <marker
       inkscape:stockid="Arrow1Mstart"
       orient="auto"
       refY="0"
       refX="0"
       id="Arrow1Mstart"
       style="overflow:visible">
      <path
         id="path3864"
         d="M 0,0 5,-5 -12.5,0 5,5 0,0 z"
         style="fill-rule:evenodd;stroke:#000000;stroke-width:1pt;marker-start:none"
         transform="matrix(0.4,0,0,0.4,4,0)"
         inkscape:connector-curvature="0" />
    </marker>
    <marker
       style="overflow:visible"
       id="Arrow2Lstart"
       refX="0"
       refY="0"
       orient="auto"
       inkscape:stockid="Arrow2Lstart">
      <path
         transform="matrix(1.1,0,0,1.1,1.1,0)"
         d="M 8.7185878,4.0337352 -2.2072895,0.01601326 8.7185884,-4.0017078 c -1.7454984,2.3720609 -1.7354408,5.6174519 -6e-7,8.035443 z"
         style="font-size:12px;fill-rule:evenodd;stroke-width:0.625;stroke-linejoin:round"
         id="path3876"
         inkscape:connector-curvature="0" />
    </marker>
    <marker
       style="overflow:visible"
       id="Arrow1Lstart"
       refX="0"
       refY="0"
       orient="auto"
       inkscape:stockid="Arrow1Lstart">
      <path
         transform="matrix(0.8,0,0,0.8,10,0)"
         style="fill-rule:evenodd;stroke:#000000;stroke-width:1pt;marker-start:none"
         d="M 0,0 5,-5 -12.5,0 5,5 0,0 z"
         id="path3858"
         inkscape:connector-curvature="0" />
    </marker>
  </defs>
  <metadata
     id="metadata2990">
    <rdf:RDF>
      <cc:Work
         rdf:about="">
        <dc:format>image/svg+xml</dc:format>
        <dc:type
           rdf:resource="http://purl.org/dc/dcmitype/StillImage" />
        <dc:title></dc:title>
      </cc:Work>
    </rdf:RDF>
  </metadata>
  <g
     style="display:inline"
     inkscape:groupmode="layer"
     inkscape:label="Layer 1"
     id="layer1"
     transform="translate(-35,-94)">
    <g
       id="g4106"
       style="fill:#bde1fa;fill-opacity:1">
      <rect
         style="fill:#bde1fa;fill-opacity:1;fill-rule:evenodd;stroke:none"
         id="rect2993"
         width="556"
         height="62.464874"
         x="150"
         y="104" />
      <rect
         style="fill:#bde1fa;fill-opacity:1;fill-rule:evenodd;stroke:none"
         id="rect2995"
         width="58.649426"
         height="152.5"
         x="647.35059"
         y="166" />
      <rect
         style="fill:#bde1fa;fill-opacity:1;fill-rule:evenodd;stroke:none"
         id="rect2997"
         width="184"
         height="154.5"
         x="150"
         y="164" />
    </g>
    <rect
       transform="scale(1,-1)"
       y="-634.47192"
       x="150"
       height="62.464874"
       width="556"
       id="rect2993-9"
       style="fill:#00a823;fill-opacity:1;fill-rule:evenodd;stroke:none" />
    <rect
       transform="scale(1,-1)"
       y="-572.47192"
       x="647.35059"
       height="154.47192"
       width="58.649426"
       id="rect2995-3"
       style="fill:#00a823;fill-opacity:1;fill-rule:evenodd;stroke:none" />
    <rect
       transform="scale(1,-1)"
       y="-574.47192"
       x="150"
       height="156.47192"
       width="184"
       id="rect2997-8"
       style="fill:#00a823;fill-opacity:1;fill-rule:evenodd;stroke:none" />
    <path
       inkscape:connector-curvature="0"
       id="path3799"
       d="m 47.88618,368 770.24644,0"
       style="fill:none;stroke:#000000;stroke-width:1.73300004;stroke-linecap:butt;stroke-linejoin:miter;stroke-miterlimit:4;stroke-opacity:1;stroke-dasharray:none;stroke-dashoffset:0" />
    <rect
       y="338"
       x="48"
       height="26"
       width="770"
       id="rect3801"
       style="fill:#fffd6c;fill-opacity:1;stroke:none" />
  </g>
  <g
     inkscape:label="Layer"
     id="layer2"
     inkscape:groupmode="layer"
     transform="translate(-35,-94)">
    <rect
       style="fill:#c6c6c6;fill-opacity:0.3430962;fill-rule:evenodd;stroke:none"
       id="rect6891"
       width="773"
       height="366"
       x="45"
       y="368" />
    <path
       inkscape:connector-curvature="0"
       id="path3845"
       d="m 663,148 c 0,0 0,36.6075 0,88.79955 0,26.49947 0,57.01648 0,88.79938 0,29.24281 0,59.55726 0,88.80012 0,31.78342 0,62.30098 0,88.80089 0,52.19232 0,88.80006 0,88.80006 0,0 -29.68175,0 -71.99963,0 -21.48606,0 -46.22958,0 -71.9995,0 -23.71077,0 -48.29047,0 -72.00125,0 -25.77018,0 -50.51396,0 -72.0002,0 C 332.68165,592 303,592 303,592 c 0,0 0,-36.6075 0,-88.79955 0,-26.49947 0,-57.01648 0,-88.79938 0,-29.24281 0,-59.55726 0,-88.80012 0,-31.78342 0,-62.30098 0,-88.80089 C 303,184.60774 303,148 303,148 c 0,0 29.68175,0 71.99963,0 21.48606,0 46.22958,0 71.9995,0 23.71077,0 48.29047,0 72.00125,0 25.77018,0 50.51396,0 72.0002,0 C 633.31835,148 663,148 663,148"
       style="fill:none;stroke:#000000;stroke-width:1.5;stroke-linecap:butt;stroke-linejoin:miter;stroke-miterlimit:4;stroke-opacity:1;stroke-dasharray:none;marker-start:none;marker-mid:url(#Arrow1Mend)" />
    <path
       inkscape:connector-curvature="0"
       id="path3851"
       d="m 679,134 c 0,0 0,39.41077 0,95.59951 0,28.52871 0,61.38261 0,95.59934 0,31.48212 0,64.11795 0,95.60013 0,34.21729 0,67.07177 0,95.60095 0,56.18904 0,95.60007 0,95.60007 0,0 -37.10219,0 -89.99954,0 -26.85757,0 -57.78697,0 -89.99938,0 -29.63798,0 -60.36208,0 -90.00012,0 -32.21293,0 -63.14288,0 -90.0009,0 C 266.10244,612 229,612 229,612 c 0,0 0,-39.41077 0,-95.59951 0,-28.52871 0,-61.38261 0,-95.59934 0,-31.48212 0,-64.11795 0,-95.60013 0,-34.21729 0,-67.07177 0,-95.60095 C 229,173.41103 229,134 229,134 c 0,0 37.10219,0 89.99954,0 26.85757,0 57.78697,0 89.99938,0 29.63798,0 60.36208,0 90.00012,0 32.21293,0 63.14288,0 90.0009,0 C 641.89756,134 679,134 679,134"
       style="fill:none;stroke:#000000;stroke-width:1.5;stroke-linecap:butt;stroke-linejoin:miter;stroke-miterlimit:4;stroke-opacity:1;stroke-dasharray:none;marker-mid:url(#Arrow1Mend)" />
    <path
       inkscape:connector-curvature="0"
       id="path3853"
       d="m 693,122 c 0,0 0,41.47201 0,100.59949 0,30.02079 0,64.59299 0,100.5993 0,33.12868 0,67.4714 0,100.60013 0,36.0069 0,70.57971 0,100.60101 C 693,583.52772 693,625 693,625 c 0,0 -42.6263,0 -103.39947,0 -30.85637,0 -66.39081,0 -103.39929,0 -34.05074,0 -69.34933,0 -103.40013,0 -37.00908,0 -72.54416,0 -103.40104,0 C 218.62658,625 176,625 176,625 c 0,0 0,-41.47201 0,-100.59949 0,-30.02079 0,-64.59299 0,-100.5993 0,-33.12868 0,-67.4714 0,-100.60013 0,-36.0069 0,-70.57971 0,-100.60101 C 176,163.47228 176,122 176,122 c 0,0 42.6263,0 103.39947,0 30.85637,0 66.39081,0 103.39929,0 34.05074,0 69.34933,0 103.40013,0 37.00908,0 72.54416,0 103.40104,0 C 650.37342,122 693,122 693,122"
       style="fill:none;stroke:#000000;stroke-width:1.5;stroke-linecap:square;stroke-linejoin:miter;stroke-miterlimit:4;stroke-opacity:1;stroke-dasharray:none;marker-start:none;marker-mid:url(#Arrow1Mend)" />
  </g>
  <g
     inkscape:groupmode="layer"
     id="layer3"
     inkscape:label="Labels"
     transform="translate(-35,-94)">
    <text
       xml:space="preserve"
       style="font-size:28px;font-style:normal;font-variant:normal;font-weight:normal;font-stretch:normal;text-align:start;line-height:125%;letter-spacing:0px;word-spacing:0px;writing-mode:lr-tb;text-anchor:start;fill:#000000;fill-opacity:1;stroke:none;font-family:Sans;-inkscape-font-specification:Sans"
       x="827"
       y="447"
       id="text6902"
       sodipodi:linespacing="125%"><tspan
         sodipodi:role="line"
         id="tspan6924"
         x="827"
         y="447">Soft </tspan><tspan
         sodipodi:role="line"
         id="tspan6926"
         x="827"
         y="482">magnetic</tspan><tspan
         sodipodi:role="line"
         id="tspan6928"
         x="827"
         y="517">underlayer</tspan></text>
    <text
       xml:space="preserve"
       style="font-size:28px;font-style:normal;font-variant:normal;font-weight:normal;font-stretch:normal;text-align:start;line-height:125%;letter-spacing:0px;word-spacing:0px;writing-mode:lr-tb;text-anchor:start;fill:#000000;fill-opacity:1;stroke:none;font-family:Sans;-inkscape-font-specification:Sans"
       x="713"
       y="183"
       id="text6906"
       sodipodi:linespacing="125%"><tspan
         sodipodi:role="line"
         id="tspan6908"
         x="713"
         y="183">Real head</tspan></text>
    <text
       xml:space="preserve"
       style="font-size:28px;font-style:normal;font-variant:normal;font-weight:normal;font-stretch:normal;text-align:start;line-height:125%;letter-spacing:0px;word-spacing:0px;writing-mode:lr-tb;text-anchor:start;fill:#000000;fill-opacity:1;stroke:none;font-family:Sans;-inkscape-font-specification:Sans"
       x="465"
       y="676"
       id="text6910"
       sodipodi:linespacing="125%"><tspan
         sodipodi:role="line"
         id="tspan6912"
         x="465"
         y="676">Imaginary head</tspan></text>
    <text
       xml:space="preserve"
       style="font-size:28px;font-style:normal;font-variant:normal;font-weight:normal;font-stretch:normal;text-align:start;line-height:125%;letter-spacing:0px;word-spacing:0px;writing-mode:lr-tb;text-anchor:start;fill:#000000;fill-opacity:1;stroke:none;font-family:Sans;-inkscape-font-specification:Sans"
       x="741"
       y="323.5"
       id="text6914"
       sodipodi:linespacing="125%"><tspan
         sodipodi:role="line"
         id="tspan6916"
         x="741"
         y="323.5">Recording layer</tspan></text>
  </g>
</svg>
